<svg xmlns="http://www.w3.org/2000/svg" version="1.1" xmlns:xlink="http://www.w3.org/1999/xlink" xmlns:svgjs="http://svgjs.com/svgjs" width="512" height="512" x="0" y="0" viewBox="0 0 512 512" style="enable-background:new 0 0 512 512" xml:space="preserve" class=""><g>
<g xmlns="http://www.w3.org/2000/svg">
	<g>
		<path d="M497,90h-45v362c0,17.441,7.56,33.03,19.51,43.945c5.956,5.439,15.045,5.424,20.998-0.017    C504.448,485.014,512,469.432,512,452V105C512,96.709,505.291,90,497,90z" fill="#0069ff" data-original="#000000" class=""></path>
	</g>
</g>
<g xmlns="http://www.w3.org/2000/svg">
	<g>
		<rect x="90" y="270" width="90" height="90" fill="#0069ff" data-original="#000000" class=""></rect>
	</g>
</g>
<g xmlns="http://www.w3.org/2000/svg">
	<g>
		<rect x="90" y="90" width="240" height="90" fill="#0069ff" data-original="#000000" class=""></rect>
	</g>
</g>
<g xmlns="http://www.w3.org/2000/svg">
	<g>
		<path d="M420,452c0-577.882,0-300.027,0-437c0-8.291-6.709-15-15-15H15C6.709,0,0,6.709,0,15v422c0,41.353,33.647,75,75,75    h368.408C429.016,496.041,420,475.134,420,452z M60,255c0-8.291,6.709-15,15-15h120c8.291,0,15,6.709,15,15v120    c0,8.291-6.709,15-15,15H75c-8.291,0-15-6.709-15-15V255z M345,452H75c-19.773,0-19.854-30,0-30h270    C364.773,422,364.854,452,345,452z M345,390h-90c-19.773,0-19.854-30,0-30h90C364.773,360,364.854,390,345,390z M345,330h-90    c-19.773,0-19.854-30,0-30h90C364.773,300,364.854,330,345,330z M345,270h-90c-19.773,0-19.854-30,0-30h90    C364.773,240,364.854,270,345,270z M360,195c0,8.291-6.709,15-15,15H75c-8.291,0-15-6.709-15-15V75c0-8.291,6.709-15,15-15h270    c8.291,0,15,6.709,15,15V195z" fill="#0069ff" data-original="#000000" class=""></path>
	</g>
</g>
<g xmlns="http://www.w3.org/2000/svg">
</g>
<g xmlns="http://www.w3.org/2000/svg">
</g>
<g xmlns="http://www.w3.org/2000/svg">
</g>
<g xmlns="http://www.w3.org/2000/svg">
</g>
<g xmlns="http://www.w3.org/2000/svg">
</g>
<g xmlns="http://www.w3.org/2000/svg">
</g>
<g xmlns="http://www.w3.org/2000/svg">
</g>
<g xmlns="http://www.w3.org/2000/svg">
</g>
<g xmlns="http://www.w3.org/2000/svg">
</g>
<g xmlns="http://www.w3.org/2000/svg">
</g>
<g xmlns="http://www.w3.org/2000/svg">
</g>
<g xmlns="http://www.w3.org/2000/svg">
</g>
<g xmlns="http://www.w3.org/2000/svg">
</g>
<g xmlns="http://www.w3.org/2000/svg">
</g>
<g xmlns="http://www.w3.org/2000/svg">
</g>
</g></svg>